<?xml version="1.0" encoding="utf-8"?>
<!-- Generator: Adobe Illustrator 16.0.0, SVG Export Plug-In . SVG Version: 6.00 Build 0)  -->
<!DOCTYPE svg PUBLIC "-//W3C//DTD SVG 1.1//EN" "http://www.w3.org/Graphics/SVG/1.1/DTD/svg11.dtd">
<svg version="1.1" id="Layer_1" xmlns="http://www.w3.org/2000/svg" xmlns:xlink="http://www.w3.org/1999/xlink" x="0px" y="0px"
	 width="10px" height="10px" viewBox="0 0 10 10" enable-background="new 0 0 10 10" xml:space="preserve">
<g>
	<path fill="#FFFFFF" d="M5,0C2.238,0,0,2.239,0,5s2.238,5,5,5s5-2.238,5-5S7.762,0,5,0z M5,9.717C2.399,9.717,0.283,7.602,0.283,5
		C0.283,2.4,2.399,0.284,5,0.284S9.717,2.4,9.717,5C9.717,7.602,7.601,9.717,5,9.717z"/>
	<path fill="#FFFFFF" d="M6.142,4L5,0.552L3.865,3.956L3.861,5.412L2.858,5.913v2.23h4.283v-2.23l-1-0.5V4z M5,1.449l0.804,2.41
		H4.196L5,1.449z M4.142,4.142h1.717v1.129L5,4.842L4.142,5.271V4.142z M6.858,7.859H5.142V7H4.858v0.859H3.142V6.143h0.717h2.283
		h0.717V7.859z M6.4,5.859H5.858H4.142H3.6l1.4-0.7L6.4,5.859z"/>
</g>
</svg>
