<?xml version="1.0" encoding="utf-8"?>
<!-- Generator: Adobe Illustrator 16.0.0, SVG Export Plug-In . SVG Version: 6.00 Build 0)  -->
<!DOCTYPE svg PUBLIC "-//W3C//DTD SVG 1.1//EN" "http://www.w3.org/Graphics/SVG/1.1/DTD/svg11.dtd">
<svg version="1.1" id="Layer_1" xmlns="http://www.w3.org/2000/svg" xmlns:xlink="http://www.w3.org/1999/xlink" x="0px" y="0px"
	 width="10px" height="10px" viewBox="0 0 10 10" enable-background="new 0 0 10 10" xml:space="preserve">
<g>
	<path fill="#FFFFFF" d="M5,0C2.238,0,0,2.238,0,5s2.238,5,5,5s5-2.238,5-5S7.762,0,5,0z M5,9.717C2.399,9.717,0.283,7.601,0.283,5
		S2.399,0.283,5,0.283S9.717,2.399,9.717,5S7.601,9.717,5,9.717z"/>
	<rect x="3.858" y="3" fill="#FFFFFF" width="0.283" height="1"/>
	<path fill="#FFFFFF" d="M8,3.8L7.142,4.658V4L6,0.552L5.142,3.126V2.941L4,1.8L2.858,2.941v0.917h-2v2.283h2.283V3.059L4,2.2
		l0.858,0.858v1.083h0.006L4.862,4.858H3.858v1.283h1h0.283h2V6V5.059L8,4.2l0.858,0.858V6h0.283V4.941L8,3.8z M2.858,5.858H2.142V5
		H1.858v0.858H1.142V4.142h1.717V5.858z M4.858,5.858H4.142V5.142h0.717V5.858z M6,1.448l0.804,2.41H6.142V3H5.858v0.858H5.196
		L6,1.448z M6.858,4.941v0.917H6.142V5H5.858v0.858H5.142v-1V4.142h1.717V4.941z"/>
	<rect x="7.858" y="5" fill="#FFFFFF" width="0.283" height="1"/>
	<polygon fill="#FFFFFF" points="3.899,7.899 4.101,8.101 4.858,7.342 4.858,9 5.142,9 5.142,7.342 5.899,8.101 6.101,7.899 5,6.8 	
		"/>
</g>
</svg>
