<?xml version="1.0" encoding="utf-8"?>
<!-- Generator: Adobe Illustrator 16.0.0, SVG Export Plug-In . SVG Version: 6.00 Build 0)  -->
<!DOCTYPE svg PUBLIC "-//W3C//DTD SVG 1.1//EN" "http://www.w3.org/Graphics/SVG/1.1/DTD/svg11.dtd">
<svg version="1.1" id="Layer_1" xmlns="http://www.w3.org/2000/svg" xmlns:xlink="http://www.w3.org/1999/xlink" x="0px" y="0px"
	 width="10px" height="10px" viewBox="0 0 10 10" enable-background="new 0 0 10 10" xml:space="preserve">
<g>
	<path fill="#FFFFFF" d="M5,0C2.238,0,0,2.238,0,5s2.238,5,5,5s5-2.238,5-5S7.762,0,5,0z M5,9.717C2.399,9.717,0.283,7.601,0.283,5
		S2.399,0.283,5,0.283S9.717,2.399,9.717,5S7.601,9.717,5,9.717z"/>
	<polygon fill="#FFFFFF" points="7.221,4.546 7.021,4.747 7.628,5.354 7.121,5.86 5.201,3.939 5.808,3.333 5.607,3.132 5,3.738 
		4.394,3.132 4.193,3.333 4.8,3.939 2.879,5.86 2.373,5.354 2.979,4.747 2.779,4.546 1.971,5.354 2.679,6.061 2.072,6.667 
		2.271,6.868 2.879,6.261 3.586,6.968 4.394,6.161 4.193,5.96 3.586,6.567 3.08,6.061 5,4.141 6.921,6.061 6.414,6.567 5.808,5.96 
		5.607,6.161 6.414,6.968 7.121,6.261 7.729,6.868 7.928,6.667 7.322,6.061 8.029,5.354 	"/>
	<rect x="7" y="2.858" fill="#FFFFFF" width="1" height="0.283"/>
	<rect x="2" y="2.858" fill="#FFFFFF" width="1" height="0.283"/>
	<rect x="4.858" y="1" fill="#FFFFFF" width="0.283" height="1"/>
</g>
</svg>
