<?xml version="1.0" encoding="utf-8"?>
<!-- Generator: Adobe Illustrator 16.0.0, SVG Export Plug-In . SVG Version: 6.00 Build 0)  -->
<!DOCTYPE svg PUBLIC "-//W3C//DTD SVG 1.1//EN" "http://www.w3.org/Graphics/SVG/1.1/DTD/svg11.dtd">
<svg version="1.1" id="Layer_1" xmlns="http://www.w3.org/2000/svg" xmlns:xlink="http://www.w3.org/1999/xlink" x="0px" y="0px"
	 width="10px" height="10px" viewBox="0 0 10 10" enable-background="new 0 0 10 10" xml:space="preserve">
<g>
	<path fill="#FFFFFF" d="M5,0C2.238,0,0,2.239,0,5c0,2.762,2.238,5,5,5s5-2.238,5-5C10,2.239,7.762,0,5,0z M5,9.717
		C2.399,9.717,0.284,7.601,0.284,5S2.399,0.284,5,0.284S9.717,2.399,9.717,5S7.601,9.717,5,9.717z"/>
	<polygon fill="#FFFFFF" points="4.858,3 5.142,3 5.142,2.142 6,2.142 6,1.858 5.142,1.858 5.142,1 4.858,1 4.858,1.858 4,1.858 
		4,2.142 4.858,2.142 	"/>
	<polygon fill="#FFFFFF" points="5.858,7.858 5.142,7.858 5.142,4 4.858,4 4.858,7.858 4.142,7.858 4.142,7 3.858,7 3.858,8.142 
		4.858,8.142 4.858,9 5.142,9 5.142,8.142 6.142,8.142 6.142,7 5.858,7 	"/>
</g>
</svg>
