<?xml version="1.0" encoding="utf-8"?>
<!-- Generator: Adobe Illustrator 16.0.0, SVG Export Plug-In . SVG Version: 6.00 Build 0)  -->
<!DOCTYPE svg PUBLIC "-//W3C//DTD SVG 1.1//EN" "http://www.w3.org/Graphics/SVG/1.1/DTD/svg11.dtd">
<svg version="1.1" id="Layer_1" xmlns="http://www.w3.org/2000/svg" xmlns:xlink="http://www.w3.org/1999/xlink" x="0px" y="0px"
	 width="10px" height="10px" viewBox="0 0 10 10" enable-background="new 0 0 10 10" xml:space="preserve">
<g>
	<rect x="3.858" y="4.653" fill="#FFFFFF" width="0.283" height="1"/>
	<path fill="#FFFFFF" d="M8,5.453L7.142,6.312V5.653L6,2.205L5.142,4.78V4.595L4,3.453L2.858,4.595v0.917h-2v2.283h2.283V4.712
		L4,3.854l0.858,0.858l0.004,1.8H3.858v1.283h1h0.283h2V7.653V6.712L8,5.854l0.858,0.858v0.941h0.283V6.595L8,5.453z M2.858,7.512
		H2.142V6.653H1.858v0.858H1.142V5.795h1.717V7.512z M4.858,7.512H4.142V6.795h0.717V7.512z M6,3.102l0.803,2.41H6.142V4.653H5.858
		v0.858H5.197L6,3.102z M6.858,6.595v0.917H6.142V6.653H5.858v0.858H5.142v-1V5.795h1.717V6.595z"/>
	<rect x="7.858" y="6.653" fill="#FFFFFF" width="0.283" height="1"/>
</g>
</svg>
